<svg version="1.2" xmlns="http://www.w3.org/2000/svg" viewBox="0 0 385 80" width="385" height="80"><style>.a{fill:none;stroke:#000;stroke-miterlimit:100;stroke-width:2}</style><path fill-rule="evenodd" class="a" d="m151.2 36.6h-6.4l-9.9-30h5.2l4.1 12.5q1.8 5.4 3.8 12.6 1.5-5.8 3.7-12.6l4.1-12.5h5.2zm32.3-8.2h-12.4l-2.8 8.2h-5.3l10.9-30.1h6.8l10.9 30.1h-5.3zm-1.5-4.4l-0.8-2.4q-2.5-7.5-3.9-11.9h-0.1q-2.2 7.3-3.8 11.9l-0.8 2.4zm25.9-17.5q5.4 0 8.1 2.1 2.7 2.2 2.7 6.2 0 2.8-1.6 4.8-1.4 2-4 2.6v0.1q1.6 0.5 2.5 1.7 0.9 1.2 1.9 4l3.1 8.5h-5.5l-2.5-7.5q-0.9-2.6-2.1-3.6-1.2-1-3.5-1h-4.3v12.1h-5.1v-30zm-5.3 4.2v9.6h5q3 0 4.5-1.3 1.4-1.3 1.4-3.6 0-4.7-6.2-4.7zm35.6 13.7v12.1h-5v-12.1l-10.6-17.9h5.8l3.3 5.9q2 3.8 4 7.8 2.1-4.2 4.1-7.8l3.2-5.9h5.8zm27.1-18.6q4.2 0 7.4 1.8 3.1 1.9 4.8 5.5 1.7 3.5 1.7 8.3 0 4.8-1.7 8.4-1.7 3.5-4.8 5.4-3.2 1.9-7.4 1.9-4.3 0-7.4-1.9-3.2-1.9-4.9-5.4-1.6-3.6-1.6-8.4 0-4.8 1.6-8.3 1.7-3.6 4.9-5.5 3.1-1.8 7.4-1.8zm0 4.5q-4 0-6.4 3-2.3 3-2.3 8.1 0 5.1 2.3 8.2 2.4 3 6.4 3 4 0 6.3-3 2.4-3.1 2.4-8.2 0-5.1-2.4-8.1-2.3-3-6.3-3zm47.1 26.1h-7.2l-6.5-12.5q-3.4-6.7-6.4-13h-0.1q0.3 6.9 0.3 13.7v11.8h-4.9v-30h7.3l6.4 12.6q3.5 6.6 6.4 12.9h0.1q-0.2-7.6-0.2-13.7v-11.8h4.8zm-150.6 6.7q3.3 0 5.8 1.2 2.5 1.1 4 3.2 1.6 2.2 1.8 5h-2.8q-0.6-3.3-2.9-5-2.2-1.9-5.9-1.9-3.2 0-5.6 1.7-2.3 1.5-3.6 4.5-1.2 2.9-1.2 6.9 0 4 1.2 6.9 1.2 3 3.4 4.5 2.3 1.6 5.4 1.6 4.2 0 6.8-2.7 2.6-2.7 2.6-8.5h-8.8v-2.5h11.5v15.7h-2.6v-4.6h-0.1q-1.1 2.3-3.8 3.7-2.6 1.4-6 1.4-3.8 0-6.6-1.9-2.8-1.8-4.4-5.3-1.5-3.5-1.5-8.3 0-4.8 1.6-8.3 1.6-3.5 4.6-5.4 3-1.9 7.1-1.9zm25.3 28.1h15.9v2.5h-18.6v-30.1h2.7zm32.9-28.1q4.1 0 7.1 2 3 1.8 4.6 5.3 1.6 3.6 1.6 8.3 0 4.7-1.6 8.2-1.6 3.5-4.6 5.5-3 1.9-7.1 1.9-4.1 0-7.1-1.9-3-2-4.6-5.5-1.7-3.5-1.7-8.2 0-4.7 1.7-8.2 1.6-3.6 4.6-5.4 3-2 7.1-2zm0 2.6q-3.2 0-5.5 1.6-2.4 1.5-3.7 4.5-1.3 3-1.3 6.9 0 3.9 1.3 6.9 1.3 2.9 3.7 4.5 2.3 1.6 5.5 1.6 3.1 0 5.5-1.6 2.4-1.6 3.7-4.5 1.3-3 1.3-6.9 0-3.9-1.3-6.9-1.3-2.9-3.7-4.5-2.4-1.6-5.5-1.6zm31.8-2q4.8 0 7.3 2 2.4 2.1 2.4 5.6 0 2.5-1.2 4.3-1.3 1.8-3.7 2.7v0.1q2.6 0.6 4 2.5 1.6 1.9 1.6 4.6 0 3.7-2.6 6-2.6 2.2-7.1 2.2h-10v-30zm-6.6 2.4v11.1h6.2q3.8 0 5.5-1.5 1.8-1.5 1.8-4.1 0-5.5-7.1-5.5zm0 13.5v11.7h6.9q3.5 0 5.3-1.5 1.8-1.5 1.8-4.4 0-2.8-1.9-4.3-1.9-1.5-6-1.5zm42.2 4.4h-14.1l-3.8 9.7h-2.9l11.8-30h3.8l11.9 30h-3zm-1-2.5l-1.2-3.2-4.8-12.4h-0.1l-0.5 1.3q-2.2 5.8-4.3 11.1l-1.2 3.2zm17.1 9.7h15.9v2.5h-18.6v-30h2.7z"/><path fill-rule="evenodd" class="a" d="m100.7 2c2.2 0.1 5 0.5 6.6 0.8 1.5 0.4 3.9 1.2 5.3 1.8 1.4 0.7 3.6 1.9 4.9 2.7 1.3 0.8 3.7 2.9 5.4 4.7 1.8 1.7 3.9 4.2 4.7 5.5 0.9 1.3 2.3 3.8 3 5.6 0.8 1.8 1.8 4.8 2.3 6.6 0.5 1.8 1 4.7 1.2 6.6 0.2 1.8 0.2 4.5 0.1 6-0.1 1.6-0.5 4.2-0.8 5.8-0.4 1.7-1 4.1-1.4 5.3-0.5 1.3-1.2 3.2-1.7 4.3-0.5 1-1.6 2.9-2.5 4.2-0.8 1.3-2.2 3.2-3.1 4.2-0.9 1-2.7 2.8-3.9 3.9-1.2 1.1-3.4 2.6-4.7 3.5-1.4 0.8-3.7 2-5 2.5-1.4 0.5-3.5 1.2-4.7 1.5-1.6 0.3-3.8 0.5-7.5 0.4-4.7 0-5.7-0.1-8.3-0.7-1.6-0.5-4.1-1.3-5.3-1.9-1.3-0.6-3.4-1.8-4.7-2.7-1.3-0.8-3.5-2.5-4.8-3.8-1.4-1.3-3.4-3.5-4.4-4.9-1-1.4-2.5-3.9-3.3-5.6-0.9-1.7-1.9-4.2-2.3-5.5-0.5-1.3-1-3.4-1.3-4.8-0.3-1.6-0.5-4.1-0.5-8.2 0-4.6 0.2-6.5 0.6-8.6 0.3-1.4 1-3.7 1.4-5 0.5-1.2 1.3-3 1.7-3.9 0.4-0.8 1.5-2.7 2.3-4.2 1.1-1.8 2.6-3.7 4.8-5.8 1.7-1.7 4.2-3.8 5.5-4.7 1.2-0.8 3.4-2 4.8-2.6 1.4-0.7 3.7-1.5 5.2-1.9 1.4-0.4 3.5-0.8 4.7-1 1.1-0.1 3.7-0.1 5.7-0.1zm2.9 8.5c-0.6 0.1-2.3 0.5-3.8 0.9-1.5 0.4-4 1.2-5.5 1.9-1.4 0.6-3.6 1.7-4.8 2.4-1.2 0.7-3.2 2.1-4.4 3-1.2 1-3.3 3-4.7 4.5l-2.4 2.6c4.3 2.1 6.2 3.2 6.9 3.8 0.8 0.6 2.4 2.1 3.6 3.2 1.2 1.1 3.1 3.2 4.2 4.5 1.2 1.4 3 3.8 4.1 5.3 1 1.5 2.1 2.7 2.3 2.7 0.2 0 1.5-1.5 2.7-3.5 1.3-1.9 3.2-5 4.1-7 1-1.8 2.2-4.7 2.8-6.4 0.5-1.6 1.1-4.1 1.3-5.4 0.2-1.4 0.3-3.9 0.2-5.7-0.1-2.1-0.4-3.7-0.8-4.8-0.4-0.9-0.9-1.8-1.1-1.9-0.2-0.2-1.2-0.3-2.1-0.2-0.9 0-2.1 0.1-2.6 0.1zm19.5 19.4c-0.2 1-0.8 2.9-1.2 4.2-0.4 1.2-1.4 3.7-2.2 5.4-0.9 1.8-2.1 4.2-2.9 5.5-0.8 1.3-2.2 3.5-3.3 4.9-1 1.3-2.6 3.3-3.5 4.2l-1.6 1.9c2.4 1.6 3.3 2.1 3.5 2.1 0.2 0 1.4-0.5 2.6-1 1.8-0.9 2.5-1.4 3.7-3.1 0.9-1.1 2.1-3.1 2.7-4.5 0.7-1.3 1.6-3.6 2-5.1 0.4-1.5 0.9-4.1 1.1-6 0.3-1.9 0.3-4.6 0.2-6.4-0.1-1.7-0.3-3.3-0.4-3.5-0.1-0.2-0.4 0.4-0.7 1.4zm-50 10.8c0 1.4 0.1 3.5 0.3 4.7 0.2 1.2 0.7 3.3 1.3 4.7 0.5 1.4 1.7 3.6 2.5 4.8 0.7 1.1 2.1 2.7 2.9 3.5 0.9 0.7 1.8 1.3 2.2 1.3 0.3 0 1.5-0.5 2.5-1.1 1-0.6 2.3-1.4 2.8-1.8l0.9-0.8c-1.6-2.6-3.5-5.2-5.1-7.6-1.6-2.3-4-5.2-5.2-6.5-1.2-1.2-2.8-2.6-3.5-3-0.7-0.4-1.4-0.8-1.5-0.8-0.1 0-0.1 1.2-0.1 2.6zm21.9 27.5l-2.4 1.3c3.2 0.9 5.2 1.2 6.6 1.4 1.4 0.1 2.8 0.1 3.1-0.1 0.5-0.1 0.3-0.4-1.7-1.7-1.2-0.9-2.3-1.7-2.4-1.9-0.1-0.2-0.3-0.3-0.5-0.3-0.2 0-1.5 0.6-2.7 1.3z"/></svg>